# Blender v3.0.0 OBJ File: 'tiles.blend'
# www.blender.org
mtllib Hedge2.mtl
o Hedge2_Plane.008
v -0.500000 0.100000 0.500000
v 0.500000 0.100000 0.500000
v -0.500000 0.100000 -0.500000
v 0.500000 0.100000 -0.500000
v -0.100000 0.400000 0.500000
v -0.100000 0.400000 -0.500000
v 0.100000 0.100000 0.500000
v 0.100000 0.100000 -0.500000
v -0.100000 0.100000 -0.500000
v -0.100000 0.100000 0.500000
v 0.100000 0.400000 -0.500000
v 0.100000 0.400000 0.500000
v -0.050000 0.450000 -0.500000
v -0.050000 0.450000 0.500000
v 0.050000 0.450000 0.500000
v 0.050000 0.450000 -0.500000
v -0.500000 0.450000 0.050000
v 0.500000 0.450000 0.050000
v -0.100000 0.450000 0.050000
v 0.100000 0.450000 0.050000
v -0.500000 0.100000 0.100000
v 0.500000 0.100000 0.100000
v -0.100000 0.400000 0.100000
v 0.100000 0.100000 0.100000
v -0.100000 0.100000 0.100000
v 0.100000 0.400000 0.100000
v -0.050000 0.450000 0.100000
v 0.050000 0.450000 0.100000
v 0.500000 0.100000 -0.100000
v -0.100000 0.400000 -0.100000
v 0.100000 0.100000 -0.100000
v -0.100000 0.100000 -0.100000
v 0.100000 0.400000 -0.100000
v -0.050000 0.450000 -0.100000
v 0.050000 0.450000 -0.100000
v -0.500000 0.100000 -0.100000
v -0.500000 0.400000 -0.100000
v 0.500000 0.400000 -0.100000
v 0.500000 0.400000 0.100000
v -0.500000 0.400000 0.100000
v -0.500000 0.450000 -0.050000
v 0.500000 0.450000 -0.050000
v -0.100000 0.450000 -0.050000
v 0.100000 0.450000 -0.050000
vt 1.000000 0.750000
vt 0.750000 1.000000
vt 0.750000 0.750000
vt 0.500000 0.750000
vt 0.250000 1.000000
vt 0.250000 0.750000
vt 0.625000 1.000000
vt 0.625000 0.750000
vt 0.000000 1.000000
vt 0.000000 0.750000
vt 0.593750 1.000000
vt 0.593750 0.750000
vt 0.562500 0.750000
vt 0.500000 1.000000
vt 0.562500 1.000000
vt 0.250000 0.625000
vt 0.250000 0.562500
vt 0.250000 0.375000
vt 0.000000 0.500000
vt 0.000000 0.375000
vt 1.000000 0.375000
vt 0.750000 0.500000
vt 0.750000 0.375000
vt 1.000000 0.000000
vt 0.750000 0.250000
vt 0.750000 0.000000
vt 0.500000 0.000000
vt 0.250000 0.250000
vt 0.250000 0.000000
vt 0.625000 0.250000
vt 0.625000 0.000000
vt 0.000000 0.250000
vt 0.000000 0.000000
vt 0.593750 0.250000
vt 0.593750 0.000000
vt 0.562500 0.000000
vt 0.500000 0.250000
vt 0.562500 0.250000
vt 0.000000 0.625000
vt 1.000000 0.625000
vt 0.750000 0.625000
vt 1.000000 0.562500
vt 0.750000 0.562500
vt 0.000000 0.562500
vt 0.250000 0.500000
vt 1.000000 0.250000
vt 1.000000 0.500000
vt 1.000000 1.000000
vn 0.0000 1.0000 0.0000
vn -1.0000 0.0000 0.0000
vn 1.0000 0.0000 0.0000
vn 0.7071 0.7071 0.0000
vn -0.7071 0.7071 0.0000
vn -0.5774 0.5774 -0.5773
vn 0.0000 0.7071 0.7071
vn 0.0000 0.0000 -1.0000
vn 0.0000 0.7071 -0.7071
vn -0.5774 0.5774 0.5774
vn 0.5774 0.5774 0.5774
vn 0.5774 0.5774 -0.5773
vn 0.0000 0.0000 1.0000
usemtl None
s off
f 29/1/1 8/2/1 31/3/1
f 30/4/2 9/5/2 32/6/2
f 31/3/3 11/7/3 33/8/3
f 32/6/1 3/9/1 36/10/1
f 33/8/4 16/11/4 35/12/4
f 34/13/5 6/14/5 30/4/5
f 35/12/1 13/15/1 34/13/1
f 30/16/6 43/17/6 34/13/6
f 23/18/7 17/19/7 40/20/7
f 39/21/7 20/22/7 26/23/7
f 2/24/1 24/25/1 7/26/1
f 5/27/2 25/28/2 10/29/2
f 7/26/3 26/30/3 12/31/3
f 10/29/1 21/32/1 1/33/1
f 12/31/4 28/34/4 15/35/4
f 14/36/5 23/37/5 5/27/5
f 15/35/1 27/38/1 14/36/1
f 30/16/8 36/10/8 37/39/8
f 38/40/8 31/3/8 33/41/8
f 42/42/9 33/41/9 44/43/9
f 43/17/9 37/39/9 41/44/9
f 23/18/10 27/38/10 19/45/10
f 28/34/11 26/30/11 20/22/11
f 33/41/12 35/12/12 44/43/12
f 22/46/13 26/23/13 24/25/13
f 25/28/13 40/20/13 21/32/13
f 20/22/1 35/12/1 43/17/1
f 19/45/1 41/44/1 17/19/1
f 18/47/1 44/43/1 20/22/1
f 29/1/1 4/48/1 8/2/1
f 30/4/2 6/14/2 9/5/2
f 31/3/3 8/2/3 11/7/3
f 32/6/1 9/5/1 3/9/1
f 33/8/4 11/7/4 16/11/4
f 34/13/5 13/15/5 6/14/5
f 35/12/1 16/11/1 13/15/1
f 23/18/7 19/45/7 17/19/7
f 39/21/7 18/47/7 20/22/7
f 2/24/1 22/46/1 24/25/1
f 5/27/2 23/37/2 25/28/2
f 7/26/3 24/25/3 26/30/3
f 10/29/1 25/28/1 21/32/1
f 12/31/4 26/30/4 28/34/4
f 14/36/5 27/38/5 23/37/5
f 15/35/1 28/34/1 27/38/1
f 30/16/8 32/6/8 36/10/8
f 38/40/8 29/1/8 31/3/8
f 42/42/9 38/40/9 33/41/9
f 43/17/9 30/16/9 37/39/9
f 22/46/13 39/21/13 26/23/13
f 25/28/13 23/18/13 40/20/13
f 27/38/1 28/34/1 20/22/1
f 20/22/1 44/43/1 35/12/1
f 35/12/1 34/13/1 43/17/1
f 43/17/1 19/45/1 27/38/1
f 27/38/1 20/22/1 43/17/1
f 19/45/1 43/17/1 41/44/1
f 18/47/1 42/42/1 44/43/1
