# Blender v3.0.0 OBJ File: 'tiles.blend'
# www.blender.org
mtllib Path1.mtl
o Path1_Plane.003
v -0.500000 0.100000 0.500000
v 0.500000 0.100000 0.500000
v -0.500000 0.100000 -0.500000
v 0.500000 0.100000 -0.500000
v -0.150000 0.050000 0.500000
v -0.150000 0.050000 -0.500000
v 0.200000 0.100000 0.500000
v 0.200000 0.100000 -0.500000
v -0.200000 0.100000 -0.500000
v -0.200000 0.100000 0.500000
v 0.150000 0.050000 -0.500000
v 0.150000 0.050000 0.500000
vt 0.999900 1.000000
vt 0.000100 0.714286
vt 0.999900 0.714286
vt 0.999900 0.357143
vt 0.000100 0.285714
vt 0.999900 0.285714
vt 0.000100 0.642857
vt 0.999900 0.642857
vt 0.000100 0.000100
vt 0.999900 0.000101
vt 0.000100 0.357143
vt 0.000000 1.000000
vn 0.0000 1.0000 0.0000
vn 0.7071 0.7071 0.0000
vn -0.7071 0.7071 0.0000
usemtl Material.002
s off
f 2/1/1 8/2/1 7/3/1
f 5/4/2 9/5/2 10/6/2
f 7/3/3 11/7/3 12/8/3
f 10/6/1 3/9/1 1/10/1
f 12/8/1 6/11/1 5/4/1
f 2/1/1 4/12/1 8/2/1
f 5/4/2 6/11/2 9/5/2
f 7/3/3 8/2/3 11/7/3
f 10/6/1 9/5/1 3/9/1
f 12/8/1 11/7/1 6/11/1
