# Blender v3.0.0 OBJ File: 'tiles.blend'
# www.blender.org
mtllib Tree.mtl
o Tree_Plane.001
v -0.500000 0.100000 0.500000
v 0.500000 0.100000 0.500000
v -0.500000 0.100000 -0.500000
v 0.500000 0.100000 -0.500000
v -0.050000 0.100000 0.050000
v -0.050000 0.650000 0.050000
v -0.050000 0.100000 -0.050000
v -0.050000 0.650000 -0.050000
v 0.050000 0.100000 0.050000
v 0.050000 0.650000 0.050000
v 0.050000 0.100000 -0.050000
v 0.050000 0.650000 -0.050000
v 0.000000 0.600000 0.000000
v 0.180902 0.876390 0.131431
v -0.069097 0.876390 0.212662
v -0.223607 0.876392 0.000000
v -0.069097 0.876390 -0.212662
v 0.180902 0.876390 -0.131431
v 0.069097 1.323609 0.212662
v -0.180902 1.323609 0.131431
v -0.180902 1.323609 -0.131431
v 0.069097 1.323609 -0.212662
v 0.223607 1.323607 0.000000
v 0.000000 1.600000 0.000000
v -0.040614 0.674672 0.124999
v 0.106331 0.674672 0.077253
v 0.065717 0.837131 0.202253
v 0.212662 0.837132 0.000000
v 0.106331 0.674672 -0.077253
v -0.131432 0.674674 0.000000
v -0.172047 0.837131 0.124999
v -0.040614 0.674672 -0.124999
v -0.172047 0.837131 -0.124999
v 0.065717 0.837131 -0.202253
v 0.237764 1.100000 0.077253
v 0.237764 1.100000 -0.077253
v 0.000000 1.100000 0.250000
v 0.146946 1.100000 0.202254
v -0.237764 1.100000 0.077253
v -0.146946 1.100000 0.202254
v -0.146946 1.100000 -0.202254
v -0.237764 1.100000 -0.077253
v 0.146946 1.100000 -0.202254
v 0.000000 1.100000 -0.250000
v 0.172047 1.362868 0.124999
v -0.065717 1.362868 0.202253
v -0.212662 1.362867 0.000000
v -0.065717 1.362868 -0.202253
v 0.172047 1.362868 -0.124999
v 0.040614 1.525327 0.124999
v 0.131432 1.525325 0.000000
v -0.106331 1.525327 0.077253
v -0.106331 1.525327 -0.077253
v 0.040614 1.525327 -0.124999
v 0.070000 0.100000 0.000000
v 0.070000 0.650000 0.000000
v 0.000000 0.100000 0.070000
v 0.000000 0.650000 0.070000
v -0.070000 0.100000 0.000000
v -0.070000 0.650000 0.000000
v 0.000000 0.100000 -0.070000
v 0.000000 0.650000 -0.070000
vt 1.000000 0.000000
vt 0.000000 1.000000
vt 0.000000 0.000000
vt 0.625000 0.125000
vt 0.375000 0.250000
vt 0.375000 0.125000
vt 0.625000 0.375000
vt 0.375000 0.500000
vt 0.375000 0.375000
vt 0.625000 0.625000
vt 0.375000 0.750000
vt 0.375000 0.625000
vt 0.625000 0.875000
vt 0.375000 1.000000
vt 0.375000 0.875000
vt 0.625000 0.750000
vt 0.625000 0.500000
vt 0.181819 0.000000
vt 0.227273 0.078731
vt 0.136365 0.078731
vt 0.272728 0.157461
vt 0.318182 0.078731
vt 0.363637 0.157461
vt 0.909091 0.000000
vt 0.954545 0.078731
vt 0.863636 0.078731
vt 0.727273 0.000000
vt 0.772727 0.078731
vt 0.681818 0.078731
vt 0.545455 0.000000
vt 0.590909 0.078731
vt 0.500000 0.078731
vt 0.318182 0.236191
vt 0.090910 0.157461
vt 0.181819 0.157461
vt 0.136365 0.236191
vt 0.818182 0.157461
vt 0.909091 0.157461
vt 0.863636 0.236191
vt 0.636364 0.157461
vt 0.727273 0.157461
vt 0.681818 0.236191
vt 0.454546 0.157461
vt 0.545455 0.157461
vt 0.500000 0.236191
vt 0.227273 0.236191
vt 0.045455 0.236191
vt 0.772727 0.236191
vt 0.590909 0.236191
vt 0.409092 0.236191
vt 0.181819 0.314921
vt 0.272728 0.314921
vt 0.227273 0.393651
vt 0.000000 0.314921
vt 0.090910 0.314921
vt 0.045455 0.393651
vt 0.727273 0.314921
vt 0.818182 0.314921
vt 0.772727 0.393651
vt 0.545455 0.314921
vt 0.636364 0.314921
vt 0.590909 0.393651
vt 0.363637 0.314921
vt 0.454546 0.314921
vt 0.409092 0.393651
vt 0.500000 0.393651
vt 0.454546 0.472382
vt 0.681818 0.393651
vt 0.636364 0.472382
vt 0.863636 0.393651
vt 0.818182 0.472382
vt 0.909091 0.314921
vt 0.136365 0.393651
vt 0.090910 0.472382
vt 0.318182 0.393651
vt 0.272728 0.472382
vt 0.954545 0.236191
vt 1.000000 0.157461
vt 0.409092 0.078731
vt 0.363637 0.000000
vt 0.625000 0.000000
vt 0.375000 0.000000
vt 0.625000 0.250000
vt 1.000000 1.000000
vt 0.625000 1.000000
vn 0.0000 1.0000 0.0000
vn -0.9285 0.0000 -0.3714
vn 0.3714 0.0000 -0.9285
vn 0.9285 0.0000 0.3714
vn -0.3714 0.0000 0.9285
vn 0.3714 0.0000 0.9285
vn 0.9285 0.0000 -0.3714
vn 0.1776 -0.8184 0.5466
vn 0.8544 -0.4037 0.3271
vn -0.4650 -0.8184 0.3378
vn -0.4650 -0.8184 -0.3378
vn 0.1776 -0.8184 -0.5466
vn 0.9445 -0.1724 0.2797
vn 0.0258 -0.1724 0.9847
vn -0.9285 -0.1724 0.3288
vn -0.5997 -0.1724 -0.7815
vn 0.5579 -0.1724 -0.8118
vn 0.8074 -0.0632 0.5866
vn -0.3084 -0.0632 0.9492
vn -0.9980 -0.0632 0.0000
vn -0.3084 -0.0632 -0.9492
vn 0.8074 -0.0632 -0.5866
vn 0.4990 0.4037 0.7668
vn -0.5751 0.4037 0.7115
vn -0.8544 0.4037 -0.3271
vn 0.0470 0.4037 -0.9137
vn 0.8835 0.4037 -0.2376
vn 0.4650 0.8184 -0.3378
vn 0.6769 0.5476 -0.4918
vn 0.4990 0.4037 -0.7668
vn -0.1776 0.8184 -0.5466
vn -0.2586 0.5476 -0.7958
vn -0.5751 0.4037 -0.7115
vn -0.5747 0.8184 0.0000
vn -0.8367 0.5476 0.0000
vn -0.8544 0.4037 0.3271
vn -0.1776 0.8184 0.5466
vn -0.2586 0.5476 0.7958
vn 0.0470 0.4037 0.9137
vn 0.4650 0.8184 0.3378
vn 0.6769 0.5476 0.4918
vn 0.8835 0.4037 0.2376
vn 0.9285 0.1724 -0.3288
vn 0.8054 0.0951 -0.5851
vn 0.5997 0.1724 -0.7815
vn -0.0258 0.1724 -0.9847
vn -0.3076 0.0951 -0.9467
vn -0.5579 0.1724 -0.8118
vn -0.9445 0.1724 -0.2797
vn -0.9955 0.0951 0.0000
vn -0.9445 0.1724 0.2797
vn -0.5579 0.1724 0.8118
vn -0.3076 0.0951 0.9467
vn -0.0258 0.1724 0.9847
vn 0.5997 0.1724 0.7815
vn 0.8054 0.0951 0.5851
vn 0.9285 0.1724 0.3288
vn 0.3084 0.0632 -0.9492
vn 0.3076 -0.0951 -0.9467
vn 0.0258 -0.1724 -0.9847
vn -0.8074 0.0632 -0.5866
vn -0.8054 -0.0951 -0.5851
vn -0.9285 -0.1724 -0.3288
vn -0.8074 0.0632 0.5866
vn -0.8054 -0.0951 0.5851
vn -0.5997 -0.1724 0.7815
vn 0.3084 0.0632 0.9492
vn 0.3076 -0.0951 0.9467
vn 0.5579 -0.1724 0.8118
vn 0.9980 0.0632 0.0000
vn 0.9955 -0.0951 0.0000
vn 0.9445 -0.1724 -0.2797
vn 0.5751 -0.4037 -0.7115
vn 0.2586 -0.5476 -0.7958
vn -0.0470 -0.4037 -0.9137
vn -0.4990 -0.4037 -0.7668
vn -0.6769 -0.5476 -0.4918
vn -0.8835 -0.4037 -0.2376
vn -0.8835 -0.4037 0.2376
vn -0.6769 -0.5476 0.4918
vn -0.4990 -0.4037 0.7668
vn 0.8544 -0.4037 -0.3271
vn 0.8367 -0.5476 0.0000
vn 0.5747 -0.8184 0.0000
vn -0.0470 -0.4037 0.9137
vn 0.2586 -0.5476 0.7958
vn 0.5751 -0.4037 0.7115
vn -0.9285 0.0000 0.3714
vn -0.3714 0.0000 -0.9285
usemtl None
s off
f 2/1/1 3/2/1 1/3/1
f 60/4/2 7/5/2 59/6/2
f 62/7/3 11/8/3 61/9/3
f 56/10/4 9/11/4 55/12/4
f 58/13/5 5/14/5 57/15/5
f 10/16/6 57/15/6 9/11/6
f 12/17/7 55/12/7 11/8/7
f 13/18/8 26/19/8 25/20/8
f 14/21/9 26/22/9 28/23/9
f 13/24/10 25/25/10 30/26/10
f 13/27/11 30/28/11 32/29/11
f 13/30/12 32/31/12 29/32/12
f 14/21/13 28/23/13 35/33/13
f 15/34/14 27/35/14 37/36/14
f 16/37/15 31/38/15 39/39/15
f 17/40/16 33/41/16 41/42/16
f 18/43/17 34/44/17 43/45/17
f 14/21/18 35/33/18 38/46/18
f 15/34/19 37/36/19 40/47/19
f 16/37/20 39/39/20 42/48/20
f 17/40/21 41/42/21 44/49/21
f 18/43/22 43/45/22 36/50/22
f 19/51/23 45/52/23 50/53/23
f 20/54/24 46/55/24 52/56/24
f 21/57/25 47/58/25 53/59/25
f 22/60/26 48/61/26 54/62/26
f 23/63/27 49/64/27 51/65/27
f 51/65/28 54/66/28 24/67/28
f 51/65/29 49/64/29 54/66/29
f 49/64/30 22/60/30 54/66/30
f 54/62/31 53/68/31 24/69/31
f 54/62/32 48/61/32 53/68/32
f 48/61/33 21/57/33 53/68/33
f 53/59/34 52/70/34 24/71/34
f 53/59/35 47/58/35 52/70/35
f 47/58/36 20/72/36 52/70/36
f 52/56/37 50/73/37 24/74/37
f 52/56/38 46/55/38 50/73/38
f 46/55/39 19/51/39 50/73/39
f 50/53/40 51/75/40 24/76/40
f 50/53/41 45/52/41 51/75/41
f 45/52/42 23/63/42 51/75/42
f 36/50/43 49/64/43 23/63/43
f 36/50/44 43/45/44 49/64/44
f 43/45/45 22/60/45 49/64/45
f 44/49/46 48/61/46 22/60/46
f 44/49/47 41/42/47 48/61/47
f 41/42/48 21/57/48 48/61/48
f 42/48/49 47/58/49 21/57/49
f 42/48/50 39/39/50 47/58/50
f 39/39/51 20/72/51 47/58/51
f 40/47/52 46/55/52 20/54/52
f 40/47/53 37/36/53 46/55/53
f 37/36/54 19/51/54 46/55/54
f 38/46/55 45/52/55 19/51/55
f 38/46/56 35/33/56 45/52/56
f 35/33/57 23/63/57 45/52/57
f 43/45/58 44/49/58 22/60/58
f 43/45/59 34/44/59 44/49/59
f 34/44/60 17/40/60 44/49/60
f 41/42/61 42/48/61 21/57/61
f 41/42/62 33/41/62 42/48/62
f 33/41/63 16/37/63 42/48/63
f 39/39/64 40/77/64 20/72/64
f 39/39/65 31/38/65 40/77/65
f 31/38/66 15/78/66 40/77/66
f 37/36/67 38/46/67 19/51/67
f 37/36/68 27/35/68 38/46/68
f 27/35/69 14/21/69 38/46/69
f 35/33/70 36/50/70 23/63/70
f 35/33/71 28/23/71 36/50/71
f 28/23/72 18/43/72 36/50/72
f 29/32/73 34/44/73 18/43/73
f 29/32/74 32/31/74 34/44/74
f 32/31/75 17/40/75 34/44/75
f 32/29/76 33/41/76 17/40/76
f 32/29/77 30/28/77 33/41/77
f 30/28/78 16/37/78 33/41/78
f 30/26/79 31/38/79 16/37/79
f 30/26/80 25/25/80 31/38/80
f 25/25/81 15/78/81 31/38/81
f 28/23/82 29/79/82 18/43/82
f 28/23/83 26/22/83 29/79/83
f 26/22/84 13/80/84 29/79/84
f 25/20/85 27/35/85 15/34/85
f 25/20/86 26/19/86 27/35/86
f 26/19/87 14/21/87 27/35/87
f 6/81/88 59/6/88 5/82/88
f 8/83/89 61/9/89 7/5/89
f 2/1/1 4/84/1 3/2/1
f 60/4/2 8/83/2 7/5/2
f 62/7/3 12/17/3 11/8/3
f 56/10/4 10/16/4 9/11/4
f 58/13/5 6/85/5 5/14/5
f 10/16/6 58/13/6 57/15/6
f 12/17/7 56/10/7 55/12/7
f 6/81/88 60/4/88 59/6/88
f 8/83/89 62/7/89 61/9/89
