# Blender v3.0.0 OBJ File: 'tiles.blend'
# www.blender.org
mtllib Hedge4.mtl
o Hedge4_Plane.010
v -0.500000 0.100000 0.500000
v 0.500000 0.100000 0.500000
v -0.500000 0.100000 -0.500000
v 0.500000 0.100000 -0.500000
v -0.100000 0.400000 0.500000
v 0.100000 0.100000 0.500000
v -0.500000 0.100000 0.100000
v -0.100000 0.100000 0.500000
v -0.050000 0.450000 0.100000
v 0.100000 0.400000 0.500000
v -0.100000 0.100000 0.100000
v -0.050000 0.450000 0.500000
v 0.050000 0.450000 0.500000
v -0.100000 0.400000 0.100000
v 0.500000 0.450000 0.050000
v 0.100000 0.450000 0.050000
v 0.500000 0.100000 0.100000
v 0.100000 0.100000 0.100000
v 0.100000 0.400000 0.100000
v 0.050000 0.450000 0.100000
v 0.500000 0.100000 -0.100000
v 0.100000 0.100000 -0.100000
v 0.100000 0.400000 -0.100000
v -0.050000 0.400000 -0.100000
v 0.500000 0.400000 -0.100000
v 0.500000 0.400000 0.100000
v 0.500000 0.450000 -0.050000
v 0.100000 0.450000 -0.050000
v -0.100000 0.100000 -0.050000
v -0.050000 0.450000 -0.050000
v -0.500000 0.100000 -0.050000
v -0.100000 0.400000 -0.050000
v 0.100000 0.100000 -0.500000
v -0.050000 0.100000 -0.500000
v -0.050000 0.100000 -0.100000
vt 0.000000 0.000000
vt 0.000000 0.000000
vt 0.000000 0.000000
vt 0.000000 0.000000
vt 0.000000 0.000000
vt 1.000000 0.375000
vt 0.750000 0.500000
vt 0.750000 0.375000
vt 1.000000 0.000000
vt 0.750000 0.250000
vt 0.750000 0.000000
vt 0.000000 0.000000
vt 0.000000 0.000000
vt 0.625000 0.250000
vt 0.625000 0.000000
vt 0.000000 0.000000
vt 0.593750 0.250000
vt 0.593750 0.000000
vt 0.000000 0.000000
vt 1.000000 0.750000
vt 0.000000 0.000000
vt 1.000000 0.625000
vt 0.750000 0.750000
vt 0.750000 0.625000
vt 1.000000 0.562500
vt 0.750000 0.562500
vt 0.000000 0.000000
vt 0.000000 0.000000
vt 1.000000 0.250000
vt 1.000000 0.500000
vt 0.000000 0.000000
vt 0.000000 0.000000
vt 0.000000 0.000000
vt 0.000000 0.000000
vt 0.000000 0.000000
vt 0.000000 0.000000
vn 0.0000 -1.0000 0.0000
vn 1.0000 0.0000 0.0000
vn 0.0000 0.7071 0.7071
vn 0.0000 1.0000 0.0000
vn 0.7071 -0.7071 0.0000
vn 0.7071 0.7071 0.0000
vn 0.0000 0.0000 -1.0000
vn 0.0000 0.7071 -0.7071
vn 0.5774 0.5774 0.5774
vn 0.0000 0.0000 1.0000
vn 0.7071 0.0000 0.7071
vn 0.5774 -0.5774 0.5773
usemtl None
s off
f 11/1/1 1/2/1 7/3/1
f 11/1/2 32/4/2 14/5/2
f 26/6/3 16/7/3 19/8/3
f 2/9/4 18/10/4 6/11/4
f 11/1/2 5/12/2 8/13/2
f 6/11/2 19/14/2 10/15/2
f 9/16/5 5/12/5 14/5/5
f 10/15/6 20/17/6 13/18/6
f 33/19/4 21/20/4 4/21/4
f 25/22/7 22/23/7 23/24/7
f 27/25/8 23/24/8 28/26/8
f 20/17/9 19/14/9 16/7/9
f 22/23/4 34/27/4 35/28/4
f 17/29/10 19/8/10 18/10/10
f 15/30/4 28/26/4 16/7/4
f 29/31/1 7/3/1 31/32/1
f 30/33/5 14/5/5 32/4/5
f 13/18/4 9/16/4 12/34/4
f 3/35/4 29/31/4 35/28/4
f 35/28/11 32/4/11 29/31/11
f 32/4/12 24/36/12 30/33/12
f 23/24/7 35/28/7 24/36/7
f 30/33/8 23/24/8 24/36/8
f 16/7/4 28/26/4 30/33/4
f 11/1/1 8/13/1 1/2/1
f 11/1/2 29/31/2 32/4/2
f 26/6/3 15/30/3 16/7/3
f 2/9/4 17/29/4 18/10/4
f 11/1/2 14/5/2 5/12/2
f 6/11/2 18/10/2 19/14/2
f 9/16/5 12/34/5 5/12/5
f 10/15/6 19/14/6 20/17/6
f 33/19/4 22/23/4 21/20/4
f 25/22/7 21/20/7 22/23/7
f 27/25/8 25/22/8 23/24/8
f 22/23/4 33/19/4 34/27/4
f 17/29/10 26/6/10 19/8/10
f 15/30/4 27/25/4 28/26/4
f 29/31/1 11/1/1 7/3/1
f 30/33/5 9/16/5 14/5/5
f 13/18/4 20/17/4 9/16/4
f 35/28/4 34/27/4 3/35/4
f 3/35/4 31/32/4 29/31/4
f 35/28/11 24/36/11 32/4/11
f 23/24/7 22/23/7 35/28/7
f 30/33/8 28/26/8 23/24/8
f 9/16/4 20/17/4 30/33/4
f 20/17/4 16/7/4 30/33/4
