# Blender v3.0.0 OBJ File: 'tiles.blend'
# www.blender.org
mtllib Hedge1.mtl
o Hedge1_Plane.007
v -0.500000 0.100000 0.500000
v 0.500000 0.100000 0.500000
v -0.500000 0.100000 -0.500000
v 0.500000 0.100000 -0.500000
v -0.100000 0.400000 0.500000
v -0.100000 0.400000 -0.500000
v 0.100000 0.100000 0.500000
v 0.100000 0.100000 -0.500000
v -0.100000 0.100000 -0.500000
v -0.100000 0.100000 0.500000
v 0.100000 0.400000 -0.500000
v 0.100000 0.400000 0.500000
v -0.050000 0.450000 -0.500000
v -0.050000 0.450000 0.500000
v 0.050000 0.450000 0.500000
v 0.050000 0.450000 -0.500000
vt 1.000000 0.000000
vt 0.750000 1.000000
vt 0.750000 0.000000
vt 0.500000 0.000000
vt 0.250000 1.000000
vt 0.250000 0.000000
vt 0.625000 1.000000
vt 0.625000 0.000000
vt 0.000000 1.000000
vt 0.000000 0.000000
vt 0.593750 1.000000
vt 0.593750 0.000000
vt 0.562500 0.000000
vt 0.500000 1.000000
vt 0.562500 1.000000
vt 1.000000 1.000000
vn 0.0000 1.0000 0.0000
vn -1.0000 0.0000 0.0000
vn 1.0000 0.0000 0.0000
vn 0.7071 0.7071 0.0000
vn -0.7071 0.7071 0.0000
usemtl None
s off
f 2/1/1 8/2/1 7/3/1
f 5/4/2 9/5/2 10/6/2
f 7/3/3 11/7/3 12/8/3
f 10/6/1 3/9/1 1/10/1
f 12/8/4 16/11/4 15/12/4
f 14/13/5 6/14/5 5/4/5
f 15/12/1 13/15/1 14/13/1
f 2/1/1 4/16/1 8/2/1
f 5/4/2 6/14/2 9/5/2
f 7/3/3 8/2/3 11/7/3
f 10/6/1 9/5/1 3/9/1
f 12/8/4 11/7/4 16/11/4
f 14/13/5 13/15/5 6/14/5
f 15/12/1 16/11/1 13/15/1
