# Blender v3.0.0 OBJ File: 'tiles.blend'
# www.blender.org
mtllib Path3.mtl
o Path3_Plane.005
v -0.500000 0.100000 0.500000
v 0.500000 0.100000 0.500000
v -0.500000 0.100000 -0.500000
v 0.500000 0.100000 -0.500000
v -0.150000 0.050000 0.500000
v -0.150000 0.050000 -0.500000
v 0.200000 0.100000 0.500000
v 0.200000 0.100000 -0.500000
v -0.200000 0.100000 -0.500000
v -0.200000 0.100000 0.500000
v 0.150000 0.050000 -0.500000
v 0.150000 0.050000 0.500000
v 0.500000 0.050000 -0.150000
v 0.200000 0.050000 -0.150000
v -0.500000 0.100000 0.200000
v 0.500000 0.100000 0.200000
v -0.150000 0.050000 0.200000
v 0.200000 0.100000 0.200000
v -0.200000 0.100000 0.200000
v 0.150000 0.050000 0.200000
v 0.500000 0.100000 -0.200000
v -0.150000 0.050000 -0.200000
v 0.200000 0.100000 -0.200000
v -0.200000 0.100000 -0.200000
v 0.150000 0.050000 -0.200000
v -0.500000 0.100000 -0.200000
v 0.500000 0.050000 0.150000
v 0.200000 0.050000 0.150000
vt 1.000000 0.750000
vt 0.750000 1.000000
vt 0.750000 0.750000
vt 0.500000 0.750000
vt 0.250000 1.000000
vt 0.250000 0.750000
vt 0.625000 1.000000
vt 0.625000 0.750000
vt 0.000000 1.000000
vt 0.000000 0.750000
vt 0.500000 1.000000
vt 1.000000 0.375000
vt 0.750000 0.500000
vt 0.750000 0.375000
vt 1.000000 0.000000
vt 0.750000 0.250000
vt 0.750000 0.000000
vt 0.500000 0.000000
vt 0.250000 0.250000
vt 0.250000 0.000000
vt 0.625000 0.250000
vt 0.625000 0.000000
vt 0.000000 0.250000
vt 0.000000 0.000000
vt 0.500000 0.250000
vt 1.000000 0.500000
vt 1.000000 0.250000
vt 1.000000 1.000000
vn 0.0000 1.0000 0.0000
vn 0.7071 0.7071 0.0000
vn -0.7071 0.7071 0.0000
vn 0.0000 0.7071 0.7071
vn 0.0000 0.7071 -0.7071
vn -0.5774 0.5774 0.5774
vn -0.5774 0.5774 -0.5774
usemtl None
s off
f 21/1/1 8/2/1 23/3/1
f 22/4/2 9/5/2 24/6/2
f 23/3/3 11/7/3 25/8/3
f 24/6/1 3/9/1 26/10/1
f 25/8/1 6/11/1 22/4/1
f 27/12/1 14/13/1 28/14/1
f 2/15/1 18/16/1 7/17/1
f 5/18/2 19/19/2 10/20/2
f 7/17/3 20/21/3 12/22/3
f 10/20/1 15/23/1 1/24/1
f 12/22/1 17/25/1 5/18/1
f 24/6/2 17/25/2 22/4/2
f 13/26/4 23/3/4 14/13/4
f 16/27/5 28/14/5 18/16/5
f 28/14/1 14/13/1 25/8/1
f 26/10/1 19/19/1 24/6/1
f 23/3/6 25/8/6 14/13/6
f 20/21/7 18/16/7 28/14/7
f 21/1/1 4/28/1 8/2/1
f 22/4/2 6/11/2 9/5/2
f 23/3/3 8/2/3 11/7/3
f 24/6/1 9/5/1 3/9/1
f 25/8/1 11/7/1 6/11/1
f 27/12/1 13/26/1 14/13/1
f 2/15/1 16/27/1 18/16/1
f 5/18/2 17/25/2 19/19/2
f 7/17/3 18/16/3 20/21/3
f 10/20/1 19/19/1 15/23/1
f 12/22/1 20/21/1 17/25/1
f 24/6/2 19/19/2 17/25/2
f 13/26/4 21/1/4 23/3/4
f 16/27/5 27/12/5 28/14/5
f 25/8/1 22/4/1 17/25/1
f 17/25/1 20/21/1 25/8/1
f 20/21/1 28/14/1 25/8/1
f 26/10/1 15/23/1 19/19/1
